<?xml version="1.0" standalone="no"?>
<!DOCTYPE svg PUBLIC "-//W3C//DTD SVG 20010904//EN"
 "http://www.w3.org/TR/2001/REC-SVG-20010904/DTD/svg10.dtd">
<svg version="1.0" xmlns="http://www.w3.org/2000/svg"
 width="535.000000pt" height="535.000000pt" viewBox="0 0 535.000000 535.000000"
 preserveAspectRatio="xMidYMid meet">
<metadata>
Created by potrace 1.14, written by Peter Selinger 2001-2017
</metadata>
<g transform="translate(0.000000,535.000000) scale(0.100000,-0.100000)"
fill="#000000" stroke="none">
<path d="M2620 5100 c0 -27 -4 -50 -10 -50 -5 0 -10 -9 -10 -20 0 -11 -4 -20
-10 -20 -6 0 -10 -30 -10 -70 0 -40 4 -70 10 -70 6 0 10 -9 10 -20 0 -11 5
-20 10 -20 6 0 10 -13 10 -28 0 -16 8 -34 20 -42 17 -12 20 -26 20 -92 0 -45
4 -78 10 -78 6 0 10 -13 10 -30 0 -16 5 -30 10 -30 6 0 10 -9 10 -20 0 -11 5
-20 10 -20 6 0 10 -22 10 -50 0 -27 -4 -50 -10 -50 -6 0 -10 -42 -10 -106 0
-109 -8 -134 -44 -134 -13 0 -16 -15 -16 -90 l0 -90 -40 0 c-33 0 -40 -3 -40
-20 0 -11 -4 -20 -10 -20 -6 0 -10 -43 -10 -108 0 -96 -2 -109 -20 -122 -12
-8 -20 -26 -20 -42 0 -15 -4 -28 -10 -28 -6 0 -10 -29 -10 -68 0 -56 -3 -70
-20 -82 -11 -8 -20 -22 -20 -32 0 -10 -4 -18 -10 -18 -6 0 -10 -43 -10 -110 0
-67 -4 -110 -10 -110 -5 0 -10 5 -10 10 0 6 -8 10 -18 10 -10 0 -24 9 -32 20
-8 11 -22 20 -32 20 -10 0 -18 5 -18 10 0 6 -9 10 -20 10 -11 0 -20 5 -20 10
0 6 -8 10 -18 10 -10 0 -24 9 -32 20 -11 15 -26 20 -61 20 -28 0 -50 -5 -53
-12 -5 -10 -7 -10 -12 0 -3 6 -14 12 -25 12 -10 0 -19 5 -19 10 0 6 -18 10
-40 10 -22 0 -40 5 -40 10 0 6 -9 10 -20 10 -11 0 -20 5 -20 10 0 6 -8 10 -18
10 -10 0 -24 9 -32 20 -16 22 -46 27 -52 8 -6 -17 -38 14 -38 36 0 9 -4 16
-10 16 -5 0 -10 9 -10 20 0 16 -7 20 -30 20 -16 0 -30 5 -30 10 0 6 -18 10
-40 10 -22 0 -40 5 -40 10 0 6 -9 10 -20 10 -11 0 -20 5 -20 10 0 6 -22 10
-50 10 -27 0 -50 5 -50 10 0 6 -18 10 -40 10 -22 0 -40 5 -40 10 0 6 -22 10
-50 10 -27 0 -50 5 -50 10 0 6 -69 10 -186 10 -204 0 -214 -3 -214 -60 0 -33
38 -80 65 -80 8 0 15 -4 15 -10 0 -5 9 -10 20 -10 11 0 20 -4 20 -10 0 -5 8
-10 18 -10 10 0 24 -9 32 -20 8 -11 21 -20 30 -20 9 0 22 -9 30 -20 8 -11 20
-20 28 -20 20 0 62 -47 62 -70 0 -24 22 -50 42 -50 8 0 20 -9 28 -20 8 -11 21
-20 30 -20 9 0 22 -9 30 -20 8 -11 20 -20 28 -20 20 0 82 -67 82 -90 0 -13 34
-55 90 -110 84 -83 90 -92 90 -130 0 -33 6 -47 35 -75 19 -19 41 -35 50 -35
11 0 15 -11 15 -46 0 -38 5 -51 30 -74 17 -15 30 -33 30 -39 0 -6 20 -32 45
-56 40 -40 49 -45 90 -45 36 0 45 -3 45 -18 0 -10 9 -24 20 -32 24 -17 27 -50
4 -50 -9 0 -29 14 -44 30 -27 29 -30 30 -124 30 -57 0 -96 -4 -96 -10 0 -5
-17 -10 -38 -10 -26 0 -42 -6 -52 -20 -10 -14 -26 -20 -52 -20 -21 0 -38 -4
-38 -10 0 -5 -25 -10 -56 -10 -52 0 -58 -3 -94 -40 l-38 -40 -416 0 c-271 0
-416 -3 -416 -10 0 -5 -13 -10 -30 -10 -16 0 -30 -4 -30 -10 0 -5 -9 -10 -20
-10 -11 0 -20 -4 -20 -10 0 -5 -8 -10 -18 -10 -10 0 -24 -9 -32 -20 -11 -15
-26 -20 -62 -20 -26 0 -48 -4 -48 -10 0 -5 -13 -10 -30 -10 -16 0 -30 -4 -30
-10 0 -5 -18 -10 -40 -10 -22 0 -40 -4 -40 -10 0 -5 -7 -10 -15 -10 -20 0 -65
-45 -65 -65 0 -8 -4 -15 -10 -15 -5 0 -10 -18 -10 -40 0 -33 -3 -40 -20 -40
-11 0 -20 -4 -20 -10 0 -5 7 -10 16 -10 20 0 44 -24 44 -43 0 -9 6 -18 13 -21
9 -5 9 -7 0 -12 -9 -4 -13 -30 -13 -81 0 -82 11 -103 54 -103 14 0 26 -4 26
-10 0 -5 9 -10 20 -10 18 0 20 -7 20 -70 0 -63 2 -70 20 -70 11 0 20 -4 20
-10 0 -5 21 -10 46 -10 38 0 51 -5 74 -30 15 -16 35 -30 44 -30 9 0 16 -4 16
-10 0 -6 40 -10 100 -10 84 0 100 -3 100 -15 0 -9 11 -27 25 -40 21 -22 33
-25 90 -25 37 0 65 4 65 10 0 6 9 10 20 10 11 0 20 5 20 10 0 6 9 10 20 10 16
0 20 -7 20 -30 0 -16 -4 -30 -10 -30 -5 0 -10 -9 -10 -20 0 -11 -4 -20 -10
-20 -5 0 -10 -17 -10 -37 l0 -38 23 28 c12 15 41 40 65 56 39 26 42 30 28 44
-9 9 -16 22 -16 30 0 9 -6 17 -12 19 -17 6 14 38 36 38 9 0 16 5 16 10 0 6 9
10 20 10 11 0 20 5 20 10 0 6 14 10 30 10 17 0 30 5 30 10 0 6 9 10 20 10 11
0 20 5 20 10 0 6 9 10 20 10 11 0 20 5 20 10 0 6 9 10 20 10 11 0 20 5 20 10
0 6 8 10 18 10 10 0 24 9 32 20 8 11 22 20 32 20 10 0 18 5 18 10 0 6 9 10 20
10 11 0 20 5 20 10 0 6 8 10 18 10 10 0 24 9 32 20 8 11 22 20 32 20 10 0 18
5 18 10 0 6 56 10 148 10 136 0 149 -2 162 -20 11 -15 26 -20 62 -20 26 0 48
-4 48 -10 0 -5 9 -10 20 -10 11 0 20 -4 20 -10 0 -5 23 -10 50 -10 28 0 50 -4
50 -10 0 -5 18 -10 40 -10 22 0 40 -4 40 -10 0 -5 9 -10 20 -10 11 0 20 -4 20
-10 0 -5 9 -10 20 -10 11 0 20 5 20 10 0 6 14 10 30 10 l30 0 0 -70 0 -70 36
0 c36 0 81 -29 56 -38 -14 -4 -16 -42 -2 -42 18 0 11 -35 -10 -50 -11 -8 -20
-22 -20 -32 0 -10 -4 -18 -10 -18 -15 0 -12 -49 4 -66 8 -8 25 -14 38 -14 13
0 30 -9 38 -20 8 -11 22 -20 32 -20 10 0 18 -4 18 -10 0 -5 14 -10 30 -10 17
0 30 -4 30 -10 0 -5 14 -10 30 -10 17 0 30 -4 30 -10 0 -5 9 -10 20 -10 11 0
20 -4 20 -10 0 -5 14 -10 30 -10 17 0 30 -4 30 -10 0 -5 14 -10 30 -10 17 0
30 -4 30 -10 0 -5 14 -10 30 -10 17 0 30 -4 30 -10 0 -5 9 -10 20 -10 11 0 20
-4 20 -10 0 -5 14 -10 30 -10 17 0 30 -4 30 -10 0 -5 9 -10 20 -10 11 0 20 -4
20 -10 0 -5 9 -10 20 -10 11 0 20 -4 20 -10 0 -5 9 -10 20 -10 11 0 20 -4 20
-10 0 -5 14 -10 30 -10 17 0 30 -4 30 -10 0 -5 7 -10 15 -10 9 0 27 -11 41
-25 22 -22 23 -27 10 -40 -8 -9 -33 -15 -56 -15 -61 0 -70 -15 -70 -110 l0
-81 -45 -44 c-24 -25 -49 -45 -56 -45 -6 0 -28 -18 -49 -40 -21 -22 -44 -40
-50 -40 -7 0 -25 -14 -42 -32 -28 -30 -29 -33 -12 -45 25 -18 29 -17 68 22 20
19 40 35 46 35 7 0 29 18 50 40 21 22 44 40 50 40 7 0 25 14 40 30 21 23 37
30 64 30 l36 0 0 50 0 50 38 0 c26 0 42 6 52 20 8 11 20 20 28 20 18 0 62 -46
62 -65 0 -8 5 -15 10 -15 6 0 10 -9 10 -20 0 -11 -4 -20 -10 -20 -5 0 -10 -22
-10 -50 l0 -50 35 0 c27 0 44 -8 70 -35 19 -19 35 -41 35 -50 0 -8 5 -15 10
-15 6 0 10 -17 10 -38 0 -26 6 -42 20 -52 11 -8 20 -20 20 -28 0 -18 46 -62
65 -62 27 0 18 49 -15 80 -17 15 -30 35 -30 44 0 9 -4 16 -10 16 -5 0 -10 9
-10 20 0 11 -4 20 -10 20 -5 0 -10 14 -10 30 0 17 -4 30 -10 30 -5 0 -10 9
-10 19 0 11 -6 21 -12 23 -8 3 9 26 40 56 28 28 52 58 52 66 0 9 5 16 10 16 6
0 10 -4 10 -10 0 -5 14 -10 30 -10 17 0 30 -4 30 -10 0 -5 23 -10 50 -10 28 0
50 -4 50 -10 0 -5 14 -10 30 -10 17 0 30 -4 30 -10 0 -5 11 -10 25 -10 19 0
49 -24 115 -90 49 -50 94 -90 100 -90 6 0 18 -7 26 -15 13 -13 12 -18 -10 -40
-14 -14 -30 -25 -37 -25 -6 0 -24 -13 -39 -30 -15 -16 -38 -30 -50 -30 -36 0
-50 -24 -49 -82 1 -75 17 -110 18 -40 1 55 16 82 45 82 9 0 16 5 16 10 0 6 12
10 26 10 16 0 37 12 54 30 15 17 35 30 44 30 9 0 16 5 16 10 0 6 9 10 20 10
11 0 20 5 20 10 0 6 12 10 26 10 15 0 35 9 45 21 l18 21 35 -36 c20 -19 36
-42 36 -51 0 -10 10 -15 33 -15 26 0 45 12 100 64 76 73 82 94 37 136 -39 36
-38 63 5 105 29 30 41 35 80 35 36 0 45 -3 45 -17 0 -30 17 -1 40 66 17 52 19
66 8 73 -11 7 -11 10 0 17 14 8 37 90 28 98 -3 3 -21 -11 -40 -31 -31 -30 -36
-42 -36 -81 0 -25 5 -45 10 -45 15 0 12 -29 -4 -46 -10 -9 -37 -14 -86 -14
-94 0 -100 -6 -100 -111 0 -70 3 -84 21 -100 l21 -18 -46 -45 c-25 -25 -50
-46 -56 -46 -15 0 -40 25 -40 40 0 6 -11 22 -25 35 -22 23 -32 25 -115 25
l-91 0 -89 90 c-66 66 -96 90 -115 90 -14 0 -25 5 -25 10 0 6 -13 10 -30 10
-16 0 -30 5 -30 10 0 6 -22 10 -50 10 -27 0 -50 5 -50 10 0 6 -13 10 -30 10
-16 0 -30 5 -30 10 0 6 -7 10 -16 10 -28 0 -44 27 -44 74 0 25 -4 46 -10 46
-5 0 -10 21 -10 46 0 64 -14 74 -104 74 -69 0 -76 2 -76 20 0 15 -7 20 -28 20
-16 0 -34 8 -42 20 -8 11 -25 20 -38 20 -14 0 -36 13 -52 30 -16 17 -38 30
-52 30 -13 0 -30 9 -38 20 -8 11 -26 20 -40 20 -14 0 -32 9 -40 20 -8 11 -22
20 -32 20 -10 0 -18 5 -18 10 0 6 -13 10 -28 10 -16 0 -34 8 -42 20 -8 11 -26
20 -40 20 -14 0 -32 9 -40 20 -8 11 -22 20 -32 20 -10 0 -18 5 -18 10 0 6 9
10 20 10 11 0 20 -4 20 -10 0 -6 53 -10 140 -10 87 0 140 4 140 10 0 6 14 10
30 10 17 0 30 5 30 10 0 6 43 10 110 10 67 0 110 4 110 10 0 6 37 10 90 10 53
0 90 4 90 10 0 6 14 10 30 10 17 0 30 5 30 10 0 6 16 10 35 10 36 0 85 35 85
60 0 19 33 47 38 32 5 -15 102 -17 102 -2 0 6 9 10 20 10 11 0 20 5 20 10 0 6
9 10 20 10 11 0 20 5 20 10 0 6 9 10 20 10 11 0 20 5 20 10 0 6 7 10 15 10 18
0 65 44 65 60 0 10 125 140 135 140 3 0 5 -7 5 -15 0 -27 127 -145 155 -145
14 0 25 -4 25 -10 0 -5 16 -10 36 -10 27 0 43 -7 63 -28 37 -40 92 -59 126
-44 14 7 53 12 85 12 38 0 60 4 60 11 0 8 -29 10 -100 7 -85 -4 -102 -2 -115
12 -8 9 -15 24 -15 33 0 13 -9 17 -40 17 -22 0 -40 5 -40 10 0 6 -11 10 -25
10 -18 0 -45 19 -90 65 -61 60 -65 68 -65 110 0 45 0 45 35 45 38 0 85 36 85
65 0 8 5 15 10 15 6 0 10 7 10 16 0 18 23 44 40 44 14 0 120 106 120 121 0 6
18 28 40 49 22 21 40 45 40 52 0 7 9 20 20 28 11 8 20 22 20 32 0 10 5 18 10
18 6 0 10 7 10 16 0 9 13 29 30 44 16 15 30 33 30 40 0 7 14 25 30 40 17 15
30 33 30 39 0 20 48 61 70 61 12 0 39 -18 60 -40 25 -26 47 -40 64 -40 14 0
26 -4 26 -10 0 -11 59 -14 84 -4 12 5 8 12 -17 37 -18 18 -44 38 -59 44 -17 8
-28 20 -28 32 0 11 -5 21 -12 23 -27 9 52 68 91 68 11 0 26 7 35 15 8 8 22 15
30 15 9 0 16 5 16 10 0 6 8 10 18 10 10 0 24 9 32 20 8 11 22 20 32 20 10 0
18 5 18 10 0 6 8 10 18 10 10 0 24 9 32 20 9 13 26 20 47 20 18 0 33 5 33 10
0 6 -16 10 -35 10 -19 0 -35 5 -35 10 0 6 -9 10 -20 10 -11 0 -20 5 -20 10 0
6 -13 10 -30 10 -16 0 -30 5 -30 10 0 6 -39 10 -96 10 l-96 0 -38 40 c-21 22
-44 40 -50 40 -6 0 -42 32 -80 70 -38 39 -76 70 -85 70 -8 0 -15 5 -15 10 0 6
-17 10 -38 10 -26 0 -42 6 -52 20 -12 16 -26 20 -72 20 -32 0 -58 4 -58 10 0
6 -22 10 -50 10 -27 0 -50 5 -50 10 0 6 -67 10 -180 10 -113 0 -180 -4 -180
-10 0 -6 -33 -10 -78 -10 -66 0 -80 -3 -92 -20 -10 -14 -26 -20 -52 -20 l-38
0 0 50 c0 28 -4 50 -10 50 -5 0 -10 18 -10 40 0 22 -4 40 -10 40 -5 0 -10 14
-10 30 0 17 -4 30 -10 30 -5 0 -10 23 -10 50 0 28 -4 50 -10 50 -5 0 -10 18
-10 40 0 22 -4 40 -10 40 -5 0 -10 18 -10 40 0 22 -4 40 -10 40 -5 0 -10 14
-10 30 0 17 -4 30 -10 30 -5 0 -10 18 -10 40 0 22 -4 40 -10 40 -5 0 -10 14
-10 30 0 17 -4 30 -10 30 -5 0 -10 14 -10 30 0 17 -4 30 -10 30 -5 0 -10 9
-10 20 0 11 -4 20 -10 20 -5 0 -10 9 -10 20 0 11 -4 20 -10 20 -5 0 -10 14
-10 30 0 17 -4 30 -10 30 -5 0 -10 14 -10 30 0 17 -4 30 -10 30 -5 0 -10 9
-10 20 0 11 -4 20 -10 20 -5 0 -10 9 -10 20 0 11 -4 20 -10 20 -5 0 -10 9 -10
20 0 11 -4 20 -10 20 -5 0 -10 14 -10 30 0 17 -4 30 -10 30 -5 0 -10 9 -10 20
0 11 -4 20 -10 20 -5 0 -10 9 -10 20 0 11 -4 20 -10 20 -5 0 -10 9 -10 20 0
11 -4 20 -10 20 -5 0 -10 9 -10 20 0 11 -4 20 -10 20 -5 0 -10 9 -10 20 0 11
-4 20 -10 20 -5 0 -10 7 -10 16 0 9 -13 29 -30 44 -16 15 -30 35 -30 44 0 9
-4 16 -10 16 -5 0 -10 9 -10 20 0 11 -4 20 -10 20 -5 0 -10 7 -10 16 0 9 -13
29 -30 44 -16 15 -30 35 -30 44 0 9 -4 16 -10 16 -5 0 -10 9 -10 20 0 11 -4
20 -10 20 -5 0 -10 7 -10 16 0 9 -13 29 -30 44 -16 15 -30 34 -30 42 0 7 -9
20 -20 28 -11 8 -20 20 -20 28 0 16 -65 82 -81 82 -6 0 -24 14 -39 30 -15 17
-34 30 -42 30 -7 0 -20 9 -28 20 -8 11 -21 20 -30 20 -9 0 -22 9 -30 20 -8 11
-22 20 -32 20 -10 0 -18 5 -18 10 0 6 -9 10 -20 10 -17 0 -20 7 -20 40 0 38
-2 40 -30 40 -29 0 -30 -1 -30 -50z"/>
<path d="M0 590 c0 -19 7 -20 110 -20 67 0 110 -4 110 -10 0 -5 23 -10 50 -10
28 0 50 -4 50 -10 0 -6 52 -10 135 -10 83 0 135 4 135 10 0 6 -42 10 -105 10
-63 0 -105 4 -105 10 0 6 -22 10 -50 10 -27 0 -50 5 -50 10 0 6 -50 10 -130
10 -80 0 -130 4 -130 10 0 6 -4 10 -10 10 -5 0 -10 -9 -10 -20z"/>
<path d="M3258 3 c12 -2 32 -2 45 0 12 2 2 4 -23 4 -25 0 -35 -2 -22 -4z"/>
</g>
</svg>
